<?xml version="1.0" standalone="no"?>
<svg viewBox="0 0 200 200" xmlns="http://www.w3.org/2000/svg">
  <path fill="#FFDC8A" d="M40.9,-70.3C51.8,-64.5,58.8,-51.2,67.1,-38.3C75.5,-25.3,85.3,-12.6,87.6,1.4C90,15.4,84.9,30.7,76.7,43.9C68.4,57.1,57.1,68.1,43.7,70.8C30.4,73.6,15.2,68.1,1.2,66.1C-12.9,64.1,-25.8,65.6,-37.9,62.1C-50,58.7,-61.3,50.3,-69.4,39.1C-77.5,27.9,-82.4,14,-81.1,0.7C-79.9,-12.5,-72.4,-25,-63.2,-34.2C-53.9,-43.3,-42.8,-49.1,-32,-55C-21.1,-60.9,-10.6,-67,2.2,-70.8C15,-74.6,29.9,-76.2,40.9,-70.3Z" transform="translate(100 100)" />
</svg>
